<svg width="130" height="80" viewBox="0 0 135 101" fill="none" xmlns="http://www.w3.org/2000/svg">
<path d="M12.7752 28.8722C8.28495 25.4666 9.49692 18.3652 14.8708 16.5937L47.4543 5.85207C52.8786 4.06388 57.9934 9.19129 56.2279 14.6472L47.391 41.9557C46.2277 45.5506 47.4078 49.478 50.3493 51.8012L75.2933 71.5023C79.6678 74.9573 78.4055 81.9456 73.0905 83.6977L38.9586 94.9498C33.7465 96.668 28.7232 91.9774 30.0492 86.6305L37.9386 54.8168C38.8074 51.3132 37.5213 47.6405 34.6677 45.4762L12.7752 28.8722Z" fill="url(#paint0_angular)" fill-opacity="0.8" stroke="black" stroke-width="2"/>
<path d="M29.4026 25.4246C31.7523 30.7793 31.1846 31.0116 29.4026 31.8166C27.6206 32.6216 26.3895 32.9066 24.0397 27.5519C21.69 22.1972 22.2577 20.6668 24.0397 19.8618C25.8218 19.0568 27.0529 20.0699 29.4026 25.4246Z" fill="white" fill-opacity="0.81"/>
<ellipse cx="33.04" cy="37.6947" rx="2.76408" ry="2.55677" fill="white"/>
<path d="M52.4636 47C52.5116 47 52.5956 46.916 52.7156 46.748C52.8356 46.58 52.9916 46.298 53.1836 45.902C53.2676 45.722 53.4116 45.416 53.6156 44.984C53.8196 44.552 54.0596 44.042 54.3356 43.454C54.6116 42.866 54.8996 42.254 55.1996 41.618C55.4996 40.97 55.7816 40.352 56.0456 39.764C56.3216 39.176 56.5616 38.66 56.7656 38.216C56.9696 37.772 57.1136 37.46 57.1976 37.28C57.3656 36.896 57.4556 36.62 57.4676 36.452C57.4796 36.284 57.4556 36.2 57.3956 36.2H60.5456C60.4976 36.2 60.4796 36.284 60.4916 36.452C60.5036 36.62 60.5876 36.896 60.7436 37.28C60.8276 37.46 60.9656 37.772 61.1576 38.216C61.3496 38.648 61.5776 39.158 61.8416 39.746C62.1176 40.334 62.3996 40.946 62.6876 41.582C62.9756 42.206 63.2576 42.812 63.5336 43.4C63.8096 43.988 64.0496 44.504 64.2536 44.948C64.4576 45.392 64.6076 45.71 64.7036 45.902C64.8956 46.298 65.0696 46.58 65.2256 46.748C65.3936 46.916 65.5196 47 65.6036 47H62.2736C62.3936 46.976 62.4896 46.88 62.5616 46.712C62.6456 46.544 62.6336 46.274 62.5256 45.902C62.5016 45.806 62.4596 45.668 62.3996 45.488C62.3396 45.308 62.2856 45.176 62.2376 45.092C62.1296 44.852 62.0156 44.702 61.8956 44.642C61.7876 44.582 61.5776 44.552 61.2656 44.552H56.6576C56.3096 44.552 56.0696 44.576 55.9376 44.624C55.8176 44.672 55.7156 44.822 55.6316 45.074C55.5836 45.218 55.5356 45.362 55.4876 45.506C55.4396 45.65 55.4036 45.782 55.3796 45.902C55.2716 46.298 55.2416 46.58 55.2896 46.748C55.3376 46.916 55.4036 47 55.4876 47H52.4636ZM57.1256 43.112H60.7436C61.0916 43.112 61.2836 43.082 61.3196 43.022C61.3556 42.962 61.3376 42.83 61.2656 42.626C61.0496 42.11 60.7976 41.546 60.5096 40.934C60.2336 40.322 59.9576 39.722 59.6816 39.134C59.4176 38.546 59.1836 38.048 58.9796 37.64H58.9436C58.6916 38.168 58.4336 38.72 58.1696 39.296C57.9056 39.86 57.6536 40.394 57.4136 40.898C57.1856 41.39 56.9996 41.792 56.8556 42.104C56.7116 42.416 56.6396 42.572 56.6396 42.572C56.5556 42.764 56.5256 42.902 56.5496 42.986C56.5856 43.07 56.7776 43.112 57.1256 43.112ZM66.579 47C66.663 47 66.741 46.916 66.813 46.748C66.897 46.58 66.939 46.304 66.939 45.92V35.66C66.939 35.276 66.897 35.006 66.813 34.85C66.741 34.682 66.663 34.592 66.579 34.58C67.107 34.58 67.563 34.544 67.947 34.472C68.343 34.388 68.619 34.304 68.775 34.22V45.92C68.775 46.304 68.811 46.58 68.883 46.748C68.967 46.916 69.051 47 69.135 47H66.579ZM70.9384 47C71.0224 47 71.1004 46.916 71.1724 46.748C71.2564 46.58 71.2984 46.304 71.2984 45.92V35.66C71.2984 35.276 71.2564 35.006 71.1724 34.85C71.1004 34.682 71.0224 34.592 70.9384 34.58C71.4664 34.58 71.9224 34.544 72.3064 34.472C72.7024 34.388 72.9784 34.304 73.1344 34.22V45.92C73.1344 46.304 73.1704 46.58 73.2424 46.748C73.3264 46.916 73.4104 47 73.4944 47H70.9384ZM78.7538 47C78.8378 47 78.9218 46.916 79.0058 46.748C79.0898 46.58 79.1318 46.304 79.1318 45.92V38.18C79.1318 37.916 79.1018 37.76 79.0418 37.712C78.9818 37.664 78.7718 37.64 78.4118 37.64H77.0978C76.4018 37.64 75.8378 37.718 75.4058 37.874C74.9858 38.018 74.7098 38.156 74.5778 38.288L74.9378 36.56V36.2H85.3418V36.56L85.7018 38.288C85.5698 38.156 85.2878 38.018 84.8558 37.874C84.4358 37.718 83.8778 37.64 83.1818 37.64H81.8858C81.5138 37.64 81.2978 37.664 81.2378 37.712C81.1778 37.76 81.1478 37.916 81.1478 38.18V45.92C81.1478 46.304 81.1898 46.58 81.2738 46.748C81.3578 46.916 81.4418 47 81.5258 47H78.7538ZM87.8023 36.848C87.4543 36.848 87.1843 36.752 86.9923 36.56C86.8003 36.356 86.7043 36.122 86.7043 35.858C86.7043 35.582 86.7943 35.348 86.9743 35.156C87.1663 34.964 87.4423 34.868 87.8023 34.868C88.1623 34.868 88.4323 34.964 88.6123 35.156C88.8043 35.348 88.9003 35.582 88.9003 35.858C88.9003 36.122 88.8043 36.356 88.6123 36.56C88.4203 36.752 88.1503 36.848 87.8023 36.848ZM86.7043 47C86.7883 47 86.8663 46.916 86.9383 46.748C87.0223 46.58 87.0643 46.304 87.0643 45.92V39.656C87.0643 39.272 87.0223 39.002 86.9383 38.846C86.8663 38.678 86.7883 38.588 86.7043 38.576H88.9003V45.92C88.9003 46.304 88.9363 46.58 89.0083 46.748C89.0923 46.916 89.1763 47 89.2603 47H86.7043ZM90.8 47C90.884 47 90.962 46.916 91.034 46.748C91.118 46.58 91.16 46.304 91.16 45.92V39.836C91.16 39.452 91.118 39.182 91.034 39.026C90.962 38.858 90.884 38.768 90.8 38.756C91.328 38.756 91.784 38.72 92.168 38.648C92.564 38.564 92.84 38.48 92.996 38.396V39.494L92.96 39.728L92.996 39.764C93.176 39.536 93.374 39.32 93.59 39.116C93.818 38.912 94.112 38.744 94.472 38.612C94.832 38.468 95.294 38.396 95.858 38.396C96.59 38.396 97.208 38.534 97.712 38.81C98.228 39.074 98.624 39.488 98.9 40.052C99.044 39.812 99.248 39.566 99.512 39.314C99.788 39.062 100.142 38.846 100.574 38.666C101.006 38.486 101.534 38.396 102.158 38.396C103.274 38.396 104.126 38.714 104.714 39.35C105.314 39.986 105.614 40.982 105.614 42.338V45.92C105.614 46.304 105.65 46.58 105.722 46.748C105.806 46.916 105.89 47 105.974 47H103.418C103.502 47 103.58 46.916 103.652 46.748C103.736 46.58 103.778 46.304 103.778 45.92V42.392C103.778 41.684 103.688 41.132 103.508 40.736C103.328 40.34 103.076 40.064 102.752 39.908C102.44 39.74 102.074 39.656 101.654 39.656C100.958 39.656 100.394 39.878 99.962 40.322C99.53 40.754 99.314 41.492 99.314 42.536V45.92C99.314 46.304 99.35 46.58 99.422 46.748C99.506 46.916 99.59 47 99.674 47H97.118C97.202 47 97.28 46.916 97.352 46.748C97.436 46.58 97.478 46.304 97.478 45.92V42.392C97.478 41.684 97.388 41.132 97.208 40.736C97.028 40.34 96.776 40.064 96.452 39.908C96.14 39.74 95.774 39.656 95.354 39.656C94.682 39.656 94.118 39.878 93.662 40.322C93.218 40.754 92.996 41.498 92.996 42.554V45.92C92.996 46.304 93.032 46.58 93.104 46.748C93.188 46.916 93.272 47 93.356 47H90.8ZM112.035 47.18C111.087 47.18 110.307 47.072 109.695 46.856C109.083 46.628 108.603 46.316 108.255 45.92C107.907 45.524 107.661 45.062 107.517 44.534C107.385 44.006 107.319 43.43 107.319 42.806C107.319 41.45 107.703 40.376 108.471 39.584C109.251 38.792 110.403 38.396 111.927 38.396C112.815 38.396 113.529 38.516 114.069 38.756C114.621 38.996 115.035 39.314 115.311 39.71C115.599 40.106 115.791 40.538 115.887 41.006C115.995 41.462 116.049 41.912 116.049 42.356V43.202C116.049 43.166 115.881 43.13 115.545 43.094C115.221 43.046 114.669 43.022 113.889 43.022H109.155C109.155 43.91 109.419 44.612 109.947 45.128C110.475 45.644 111.261 45.902 112.305 45.902C113.205 45.902 113.943 45.794 114.519 45.578C115.107 45.35 115.497 45.128 115.689 44.912V45.272L115.869 46.46C115.605 46.616 115.137 46.778 114.465 46.946C113.805 47.102 112.995 47.18 112.035 47.18ZM109.875 41.834H114.249C114.249 41.522 114.183 41.198 114.051 40.862C113.919 40.526 113.685 40.244 113.349 40.016C113.013 39.776 112.539 39.656 111.927 39.656C111.147 39.656 110.523 39.842 110.055 40.214C109.599 40.586 109.371 41.006 109.371 41.474C109.371 41.594 109.407 41.684 109.479 41.744C109.551 41.804 109.683 41.834 109.875 41.834ZM117.589 47C117.673 47 117.751 46.916 117.823 46.748C117.907 46.58 117.949 46.304 117.949 45.92V39.836C117.949 39.452 117.907 39.182 117.823 39.026C117.751 38.858 117.673 38.768 117.589 38.756C118.117 38.756 118.573 38.72 118.957 38.648C119.353 38.564 119.629 38.48 119.785 38.396V39.296L119.749 39.602L119.785 39.638C120.061 39.29 120.415 38.996 120.847 38.756C121.291 38.516 121.837 38.396 122.485 38.396C123.049 38.396 123.535 38.48 123.943 38.648C124.363 38.804 124.663 38.966 124.843 39.134L124.483 40.646V41.186C124.327 40.994 124.099 40.796 123.799 40.592C123.511 40.376 123.181 40.196 122.809 40.052C122.437 39.908 122.041 39.836 121.621 39.836C121.141 39.836 120.715 40.028 120.343 40.412C119.971 40.796 119.785 41.432 119.785 42.32V45.92C119.785 46.304 119.821 46.58 119.893 46.748C119.977 46.916 120.061 47 120.145 47H117.589ZM130.689 47.18C129.561 47.18 128.613 47.12 127.845 47C127.089 46.88 126.573 46.76 126.297 46.64V46.28L125.919 44.732C126.231 44.984 126.777 45.248 127.557 45.524C128.349 45.788 129.309 45.92 130.437 45.92C131.181 45.92 131.739 45.872 132.111 45.776C132.483 45.668 132.729 45.53 132.849 45.362C132.969 45.182 133.029 44.984 133.029 44.768C133.029 44.516 132.939 44.318 132.759 44.174C132.591 44.018 132.267 43.892 131.787 43.796C131.319 43.688 130.623 43.58 129.699 43.472C128.691 43.352 127.911 43.178 127.359 42.95C126.819 42.722 126.447 42.434 126.243 42.086C126.039 41.726 125.937 41.3 125.937 40.808C125.937 40.424 126.039 40.046 126.243 39.674C126.447 39.302 126.825 38.996 127.377 38.756C127.941 38.516 128.739 38.396 129.771 38.396C130.887 38.396 131.823 38.456 132.579 38.576C133.347 38.696 133.869 38.816 134.145 38.936V39.296L134.505 40.664C134.205 40.448 133.659 40.226 132.867 39.998C132.075 39.77 131.121 39.656 130.005 39.656C129.117 39.656 128.523 39.758 128.223 39.962C127.923 40.154 127.773 40.406 127.773 40.718C127.773 40.898 127.809 41.06 127.881 41.204C127.953 41.336 128.097 41.456 128.313 41.564C128.541 41.672 128.877 41.768 129.321 41.852C129.777 41.936 130.383 42.02 131.139 42.104C132.159 42.212 132.933 42.38 133.461 42.608C133.989 42.836 134.349 43.124 134.541 43.472C134.745 43.808 134.847 44.204 134.847 44.66C134.847 45.152 134.709 45.59 134.433 45.974C134.169 46.346 133.731 46.64 133.119 46.856C132.507 47.072 131.697 47.18 130.689 47.18Z" fill="black"/>
<defs>
<radialGradient id="paint0_angular" cx="0" cy="0" r="1" gradientUnits="userSpaceOnUse" gradientTransform="translate(42.7839 54.7969) rotate(72.2426) scale(41.9806 32.6477)">
<stop offset="0.197917" stop-color="#B1DBAB"/>
<stop offset="0.223958" stop-color="#B1DBAB" stop-opacity="0.932292"/>
<stop offset="0.979167" stop-color="#B1DBAB" stop-opacity="0"/>
</radialGradient>
</defs>
</svg>
